<svg width="138" height="20" viewBox="0 0 138 20" fill="none" xmlns="http://www.w3.org/2000/svg">
<path d="M0.279602 0.948268H13.6748V5.36866H4.95529V8.87897H11.6529V13.0393H4.95529V19.1499H0.279602V0.948268Z" fill="black"/>
<path d="M25.0511 19.6699C23.8211 19.6699 22.709 19.4879 21.7149 19.1239C20.7377 18.7425 19.9036 18.2138 19.2128 17.5377C18.5388 16.8443 18.0165 16.0209 17.6458 15.0675C17.2751 14.1141 17.0898 13.048 17.0898 11.8692V0.948268H21.7655V11.7392C21.7655 12.8487 22.0603 13.7154 22.6501 14.3395C23.2398 14.9462 24.0401 15.2495 25.0511 15.2495C26.062 15.2495 26.8624 14.9462 27.4521 14.3395C28.0418 13.7154 28.3367 12.8487 28.3367 11.7392V0.948268H33.0124V11.8692C33.0124 13.048 32.8271 14.1141 32.4564 15.0675C32.0857 16.0209 31.5549 16.8443 30.8641 17.5377C30.1901 18.2138 29.3561 18.7425 28.362 19.1239C27.3847 19.4879 26.2811 19.6699 25.0511 19.6699Z" fill="black"/>
<path d="M41.6056 5.36866H36.0453V0.948268H51.8415V5.36866H46.2813V19.1499H41.6056V5.36866Z" fill="black"/>
<path d="M54.9889 0.948268H64.4667C65.4103 0.948268 66.2443 1.06961 66.9688 1.3123C67.6933 1.55499 68.2999 1.88435 68.7886 2.30039C69.2772 2.71643 69.6479 3.2018 69.9006 3.75652C70.1533 4.2939 70.2797 4.87462 70.2797 5.49867C70.2797 6.27874 70.1281 6.92013 69.8248 7.42284C69.5383 7.90822 69.2266 8.28959 68.8896 8.56695C68.4684 8.87897 68.0051 9.11299 67.4996 9.26901V9.39902C68.123 9.57237 68.6875 9.84106 69.1929 10.2051C69.631 10.5171 70.027 10.9678 70.3808 11.5572C70.7346 12.1293 70.9116 12.8833 70.9116 13.8194C70.9116 14.5648 70.7683 15.2669 70.4819 15.9256C70.1955 16.567 69.7742 17.1304 69.2182 17.6158C68.6622 18.0838 67.9629 18.4565 67.1205 18.7339C66.2948 19.0112 65.326 19.1499 64.214 19.1499H54.9889V0.948268ZM63.7085 15.2495C64.5341 15.2495 65.1407 15.0762 65.5282 14.7295C65.9157 14.3828 66.1095 13.9494 66.1095 13.4294C66.1095 12.9093 65.9157 12.476 65.5282 12.1293C65.1407 11.7826 64.5341 11.6092 63.7085 11.6092H59.6646V15.2495H63.7085ZM63.4557 7.96889C64.096 7.96889 64.5678 7.82155 64.8711 7.52685C65.1912 7.23216 65.3513 6.85946 65.3513 6.40875C65.3513 5.95805 65.1912 5.58535 64.8711 5.29065C64.5678 4.99596 64.096 4.84862 63.4557 4.84862H59.6646V7.96889H63.4557Z" fill="black"/>
<path d="M93.6419 19.6699C92.1929 19.6699 81.033 19.4186 79.8199 18.9159C78.6067 18.3958 77.562 17.6938 76.6859 16.8097C75.8266 15.9256 75.1526 14.9028 74.664 13.7414C74.1922 12.58 73.9563 11.3492 73.9563 10.0491C73.9563 8.74896 74.1922 7.51819 74.664 6.35675C75.1526 5.19531 75.8266 4.17256 76.6859 3.28848C77.562 2.4044 78.6067 1.711 79.8199 1.20829C81.033 0.688246 92.1929 0.428223 93.6419 0.428223C95.091 0.428223 96.4221 0.688246 97.6352 1.20829C98.8484 1.711 99.8846 2.4044 100.744 3.28848C101.62 4.17256 102.294 5.19531 102.766 6.35675C103.254 7.51819 103.499 8.74896 103.499 10.0491C103.499 11.3492 103.254 12.58 102.766 13.7414C102.294 14.9028 101.62 15.9256 100.744 16.8097C99.8846 17.6938 98.8484 18.3958 97.6352 18.9159C96.4221 19.4186 95.091 19.6699 93.6419 19.6699ZM93.6419 15.2495C94.3665 15.2495 95.032 15.1282 95.6386 14.8855C96.2451 14.6255 96.7591 14.2701 97.1803 13.8194C97.6184 13.3687 97.9554 12.8227 98.1912 12.1813C98.444 11.5399 98.5704 10.8291 98.5704 10.0491C98.5704 9.26901 98.444 8.55828 98.1912 7.91689C97.9554 7.2755 97.6184 6.72945 97.1803 6.27874C96.7591 5.82804 96.2451 5.48134 95.6386 5.23865C95.032 4.97863 94.3665 4.84862 93.6419 4.84862C92.9174 4.84862 82.4231 4.97863 81.8165 5.23865C81.2099 5.48134 80.6876 5.82804 80.2495 6.27874C79.8283 6.72945 79.4913 7.2755 79.2385 7.91689C79.0027 8.55828 78.8847 9.26901 78.8847 10.0491C78.8847 10.8291 79.0027 11.5399 79.2385 12.1813C79.4913 12.8227 79.8283 13.3687 80.2495 13.8194C80.6876 14.2701 81.2099 14.6255 81.8165 14.8855C82.4231 15.1282 92.9174 15.2495 93.6419 15.2495Z" fill="black"/>
<path d="M107.28 0.948268H111.956V14.7295H120.423V19.1499H107.28V0.948268Z" fill="black"/>
<path d="M126.473 12.6493L119.902 0.948268H124.831L128.622 7.96889H129.001L132.792 0.948268H137.72L131.149 12.6493V19.1499H126.473V12.6493Z" fill="black"/>
</svg>
